<svg id="visual" viewBox="0 0 900 600" width="900" height="600" xmlns="http://www.w3.org/2000/svg" xmlns:xlink="http://www.w3.org/1999/xlink" version="1.1"><path d="M863 600L861.5 588.8C860 577.7 857 555.3 857 533.2C857 511 860 489 860 466.8C860 444.7 857 422.3 855.5 400C854 377.7 854 355.3 854 333.2C854 311 854 289 854 266.8C854 244.7 854 222.3 854 200C854 177.7 854 155.3 852.5 133.2C851 111 848 89 849.5 66.8C851 44.7 857 22.3 860 11.2L863 0L900 0L900 11.2C900 22.3 900 44.7 900 66.8C900 89 900 111 900 133.2C900 155.3 900 177.7 900 200C900 222.3 900 244.7 900 266.8C900 289 900 311 900 333.2C900 355.3 900 377.7 900 400C900 422.3 900 444.7 900 466.8C900 489 900 511 900 533.2C900 555.3 900 577.7 900 588.8L900 600Z" fill="#004cbb"></path><path d="M809 600L809 588.8C809 577.7 809 555.3 809 533.2C809 511 809 489 809 466.8C809 444.7 809 422.3 809 400C809 377.7 809 355.3 809 333.2C809 311 809 289 809 266.8C809 244.7 809 222.3 809 200C809 177.7 809 155.3 807.5 133.2C806 111 803 89 804.5 66.8C806 44.7 812 22.3 815 11.2L818 0L864 0L861 11.2C858 22.3 852 44.7 850.5 66.8C849 89 852 111 853.5 133.2C855 155.3 855 177.7 855 200C855 222.3 855 244.7 855 266.8C855 289 855 311 855 333.2C855 355.3 855 377.7 856.5 400C858 422.3 861 444.7 861 466.8C861 489 858 511 858 533.2C858 555.3 861 577.7 862.5 588.8L864 600Z" fill="#0052ca"></path><path d="M737 600L737 588.8C737 577.7 737 555.3 737 533.2C737 511 737 489 740 466.8C743 444.7 749 422.3 749 400C749 377.7 743 355.3 743 333.2C743 311 749 289 750.5 266.8C752 244.7 749 222.3 747.5 200C746 177.7 746 155.3 743 133.2C740 111 734 89 734 66.8C734 44.7 740 22.3 743 11.2L746 0L819 0L816 11.2C813 22.3 807 44.7 805.5 66.8C804 89 807 111 808.5 133.2C810 155.3 810 177.7 810 200C810 222.3 810 244.7 810 266.8C810 289 810 311 810 333.2C810 355.3 810 377.7 810 400C810 422.3 810 444.7 810 466.8C810 489 810 511 810 533.2C810 555.3 810 577.7 810 588.8L810 600Z" fill="#0057d9"></path><path d="M683 600L684.5 588.8C686 577.7 689 555.3 689 533.2C689 511 686 489 686 466.8C686 444.7 689 422.3 687.5 400C686 377.7 680 355.3 680 333.2C680 311 686 289 690.5 266.8C695 244.7 698 222.3 698 200C698 177.7 695 155.3 689 133.2C683 111 674 89 675.5 66.8C677 44.7 689 22.3 695 11.2L701 0L747 0L744 11.2C741 22.3 735 44.7 735 66.8C735 89 741 111 744 133.2C747 155.3 747 177.7 748.5 200C750 222.3 753 244.7 751.5 266.8C750 289 744 311 744 333.2C744 355.3 750 377.7 750 400C750 422.3 744 444.7 741 466.8C738 489 738 511 738 533.2C738 555.3 738 577.7 738 588.8L738 600Z" fill="#005de8"></path><path d="M611 600L611 588.8C611 577.7 611 555.3 609.5 533.2C608 511 605 489 605 466.8C605 444.7 608 422.3 609.5 400C611 377.7 611 355.3 614 333.2C617 311 623 289 627.5 266.8C632 244.7 635 222.3 632 200C629 177.7 620 155.3 615.5 133.2C611 111 611 89 612.5 66.8C614 44.7 617 22.3 618.5 11.2L620 0L702 0L696 11.2C690 22.3 678 44.7 676.5 66.8C675 89 684 111 690 133.2C696 155.3 699 177.7 699 200C699 222.3 696 244.7 691.5 266.8C687 289 681 311 681 333.2C681 355.3 687 377.7 688.5 400C690 422.3 687 444.7 687 466.8C687 489 690 511 690 533.2C690 555.3 687 577.7 685.5 588.8L684 600Z" fill="#0063f7"></path><path d="M440 600L438.5 588.8C437 577.7 434 555.3 431 533.2C428 511 425 489 429.5 466.8C434 444.7 446 422.3 450.5 400C455 377.7 452 355.3 455 333.2C458 311 467 289 462.5 266.8C458 244.7 440 222.3 425 200C410 177.7 398 155.3 399.5 133.2C401 111 416 89 426.5 66.8C437 44.7 443 22.3 446 11.2L449 0L621 0L619.5 11.2C618 22.3 615 44.7 613.5 66.8C612 89 612 111 616.5 133.2C621 155.3 630 177.7 633 200C636 222.3 633 244.7 628.5 266.8C624 289 618 311 615 333.2C612 355.3 612 377.7 610.5 400C609 422.3 606 444.7 606 466.8C606 489 609 511 610.5 533.2C612 555.3 612 577.7 612 588.8L612 600Z" fill="#156cff"></path><path d="M260 600L257 588.8C254 577.7 248 555.3 243.5 533.2C239 511 236 489 236 466.8C236 444.7 239 422.3 240.5 400C242 377.7 242 355.3 245 333.2C248 311 254 289 249.5 266.8C245 244.7 230 222.3 221 200C212 177.7 209 155.3 210.5 133.2C212 111 218 89 227 66.8C236 44.7 248 22.3 254 11.2L260 0L450 0L447 11.2C444 22.3 438 44.7 427.5 66.8C417 89 402 111 400.5 133.2C399 155.3 411 177.7 426 200C441 222.3 459 244.7 463.5 266.8C468 289 459 311 456 333.2C453 355.3 456 377.7 451.5 400C447 422.3 435 444.7 430.5 466.8C426 489 429 511 432 533.2C435 555.3 438 577.7 439.5 588.8L441 600Z" fill="#2d77ff"></path><path d="M161 600L161 588.8C161 577.7 161 555.3 161 533.2C161 511 161 489 158 466.8C155 444.7 149 422.3 147.5 400C146 377.7 149 355.3 153.5 333.2C158 311 164 289 161 266.8C158 244.7 146 222.3 140 200C134 177.7 134 155.3 137 133.2C140 111 146 89 150.5 66.8C155 44.7 158 22.3 159.5 11.2L161 0L261 0L255 11.2C249 22.3 237 44.7 228 66.8C219 89 213 111 211.5 133.2C210 155.3 213 177.7 222 200C231 222.3 246 244.7 250.5 266.8C255 289 249 311 246 333.2C243 355.3 243 377.7 241.5 400C240 422.3 237 444.7 237 466.8C237 489 240 511 244.5 533.2C249 555.3 255 577.7 258 588.8L261 600Z" fill="#4082ff"></path><path d="M116 600L116 588.8C116 577.7 116 555.3 117.5 533.2C119 511 122 489 119 466.8C116 444.7 107 422.3 105.5 400C104 377.7 110 355.3 114.5 333.2C119 311 122 289 119 266.8C116 244.7 107 222.3 102.5 200C98 177.7 98 155.3 99.5 133.2C101 111 104 89 107 66.8C110 44.7 113 22.3 114.5 11.2L116 0L162 0L160.5 11.2C159 22.3 156 44.7 151.5 66.8C147 89 141 111 138 133.2C135 155.3 135 177.7 141 200C147 222.3 159 244.7 162 266.8C165 289 159 311 154.5 333.2C150 355.3 147 377.7 148.5 400C150 422.3 156 444.7 159 466.8C162 489 162 511 162 533.2C162 555.3 162 577.7 162 588.8L162 600Z" fill="#518dff"></path><path d="M0 600L0 588.8C0 577.7 0 555.3 0 533.2C0 511 0 489 0 466.8C0 444.7 0 422.3 0 400C0 377.7 0 355.3 0 333.2C0 311 0 289 0 266.8C0 244.7 0 222.3 0 200C0 177.7 0 155.3 0 133.2C0 111 0 89 0 66.8C0 44.7 0 22.3 0 11.2L0 0L117 0L115.5 11.2C114 22.3 111 44.7 108 66.8C105 89 102 111 100.5 133.2C99 155.3 99 177.7 103.5 200C108 222.3 117 244.7 120 266.8C123 289 120 311 115.5 333.2C111 355.3 105 377.7 106.5 400C108 422.3 117 444.7 120 466.8C123 489 120 511 118.5 533.2C117 555.3 117 577.7 117 588.8L117 600Z" fill="#6198ff"></path></svg>